<mxfile host="app.diagrams.net" modified="2023-07-05T07:05:43.003Z" agent="Mozilla/5.0 (Windows NT 10.0; Win64; x64) AppleWebKit/537.36 (KHTML, like Gecko) Chrome/114.0.0.0 Safari/537.36" etag="0UpowiSZj2hGtoPMUoQl" version="21.5.0" type="github">
  <diagram name="Page-1" id="fv0f2XzFWmHeJVbN8WGA">
    <mxGraphModel dx="880" dy="484" grid="1" gridSize="10" guides="1" tooltips="1" connect="1" arrows="1" fold="1" page="1" pageScale="1" pageWidth="850" pageHeight="1100" math="0" shadow="0">
      <root>
        <mxCell id="0" />
        <mxCell id="1" parent="0" />
        <mxCell id="WUF-8V408aM-GwsdY9ow-1" value="" style="whiteSpace=wrap;html=1;aspect=fixed;" vertex="1" parent="1">
          <mxGeometry x="30" y="90" width="170" height="170" as="geometry" />
        </mxCell>
        <mxCell id="WUF-8V408aM-GwsdY9ow-2" value="" style="whiteSpace=wrap;html=1;aspect=fixed;" vertex="1" parent="1">
          <mxGeometry x="70" y="340" width="170" height="170" as="geometry" />
        </mxCell>
        <mxCell id="WUF-8V408aM-GwsdY9ow-3" value="" style="whiteSpace=wrap;html=1;aspect=fixed;" vertex="1" parent="1">
          <mxGeometry x="390" y="340" width="170" height="170" as="geometry" />
        </mxCell>
        <mxCell id="WUF-8V408aM-GwsdY9ow-4" value="" style="whiteSpace=wrap;html=1;aspect=fixed;" vertex="1" parent="1">
          <mxGeometry x="495" y="70" width="170" height="170" as="geometry" />
        </mxCell>
        <mxCell id="WUF-8V408aM-GwsdY9ow-5" value="Game" style="text;html=1;strokeColor=none;fillColor=none;align=center;verticalAlign=middle;whiteSpace=wrap;rounded=0;" vertex="1" parent="1">
          <mxGeometry x="20" y="60" width="110" height="30" as="geometry" />
        </mxCell>
        <mxCell id="WUF-8V408aM-GwsdY9ow-6" value="Board board;" style="text;html=1;strokeColor=none;fillColor=none;align=center;verticalAlign=middle;whiteSpace=wrap;rounded=0;" vertex="1" parent="1">
          <mxGeometry x="30" y="100" width="157.5" height="30" as="geometry" />
        </mxCell>
        <mxCell id="WUF-8V408aM-GwsdY9ow-7" value="Player" style="text;html=1;strokeColor=none;fillColor=none;align=center;verticalAlign=middle;whiteSpace=wrap;rounded=0;" vertex="1" parent="1">
          <mxGeometry x="42.5" y="310" width="145" height="30" as="geometry" />
        </mxCell>
        <mxCell id="WUF-8V408aM-GwsdY9ow-8" value="Cell [][]cells;" style="text;html=1;strokeColor=none;fillColor=none;align=center;verticalAlign=middle;whiteSpace=wrap;rounded=0;" vertex="1" parent="1">
          <mxGeometry x="520" y="120" width="145" height="30" as="geometry" />
        </mxCell>
        <mxCell id="WUF-8V408aM-GwsdY9ow-9" value="Board" style="text;html=1;strokeColor=none;fillColor=none;align=center;verticalAlign=middle;whiteSpace=wrap;rounded=0;" vertex="1" parent="1">
          <mxGeometry x="450" y="40" width="145" height="30" as="geometry" />
        </mxCell>
        <mxCell id="WUF-8V408aM-GwsdY9ow-10" value="Deque&amp;lt;Players&amp;gt; players;" style="text;html=1;strokeColor=none;fillColor=none;align=center;verticalAlign=middle;whiteSpace=wrap;rounded=0;" vertex="1" parent="1">
          <mxGeometry x="42.5" y="140" width="145" height="30" as="geometry" />
        </mxCell>
        <mxCell id="WUF-8V408aM-GwsdY9ow-11" value="Piece" style="text;html=1;strokeColor=none;fillColor=none;align=center;verticalAlign=middle;whiteSpace=wrap;rounded=0;" vertex="1" parent="1">
          <mxGeometry x="370" y="300" width="145" height="30" as="geometry" />
        </mxCell>
        <mxCell id="WUF-8V408aM-GwsdY9ow-12" value="PieceType type;" style="text;html=1;strokeColor=none;fillColor=none;align=center;verticalAlign=middle;whiteSpace=wrap;rounded=0;" vertex="1" parent="1">
          <mxGeometry x="400" y="340" width="145" height="30" as="geometry" />
        </mxCell>
        <mxCell id="WUF-8V408aM-GwsdY9ow-13" value="String name;" style="text;html=1;strokeColor=none;fillColor=none;align=center;verticalAlign=middle;whiteSpace=wrap;rounded=0;" vertex="1" parent="1">
          <mxGeometry x="95" y="370" width="145" height="30" as="geometry" />
        </mxCell>
        <mxCell id="WUF-8V408aM-GwsdY9ow-14" value="&lt;span style=&quot;color: rgb(0, 0, 0); font-family: Helvetica; font-size: 12px; font-style: normal; font-variant-ligatures: normal; font-variant-caps: normal; font-weight: 400; letter-spacing: normal; orphans: 2; text-align: center; text-indent: 0px; text-transform: none; widows: 2; word-spacing: 0px; -webkit-text-stroke-width: 0px; background-color: rgb(251, 251, 251); text-decoration-thickness: initial; text-decoration-style: initial; text-decoration-color: initial; float: none; display: inline !important;&quot;&gt;Piece piece;&lt;/span&gt;" style="text;whiteSpace=wrap;html=1;" vertex="1" parent="1">
          <mxGeometry x="112.5" y="410" width="127.5" height="30" as="geometry" />
        </mxCell>
        <mxCell id="WUF-8V408aM-GwsdY9ow-15" value="" style="whiteSpace=wrap;html=1;aspect=fixed;" vertex="1" parent="1">
          <mxGeometry x="610" y="340" width="170" height="170" as="geometry" />
        </mxCell>
        <mxCell id="WUF-8V408aM-GwsdY9ow-16" value="enum PieceType" style="text;html=1;strokeColor=none;fillColor=none;align=center;verticalAlign=middle;whiteSpace=wrap;rounded=0;" vertex="1" parent="1">
          <mxGeometry x="605" y="310" width="165" height="30" as="geometry" />
        </mxCell>
        <mxCell id="WUF-8V408aM-GwsdY9ow-18" value="X,0" style="text;html=1;strokeColor=none;fillColor=none;align=center;verticalAlign=middle;whiteSpace=wrap;rounded=0;" vertex="1" parent="1">
          <mxGeometry x="600" y="360" width="165" height="30" as="geometry" />
        </mxCell>
        <mxCell id="WUF-8V408aM-GwsdY9ow-19" value="" style="endArrow=classic;html=1;rounded=0;exitX=1.018;exitY=0.124;exitDx=0;exitDy=0;exitPerimeter=0;" edge="1" parent="1" source="WUF-8V408aM-GwsdY9ow-1">
          <mxGeometry width="50" height="50" relative="1" as="geometry">
            <mxPoint x="400" y="280" as="sourcePoint" />
            <mxPoint x="490" y="110" as="targetPoint" />
          </mxGeometry>
        </mxCell>
        <mxCell id="WUF-8V408aM-GwsdY9ow-20" value="" style="endArrow=classic;html=1;rounded=0;exitX=0.647;exitY=1.012;exitDx=0;exitDy=0;exitPerimeter=0;" edge="1" parent="1" source="WUF-8V408aM-GwsdY9ow-1" target="WUF-8V408aM-GwsdY9ow-2">
          <mxGeometry width="50" height="50" relative="1" as="geometry">
            <mxPoint x="400" y="280" as="sourcePoint" />
            <mxPoint x="450" y="230" as="targetPoint" />
          </mxGeometry>
        </mxCell>
        <mxCell id="WUF-8V408aM-GwsdY9ow-21" value="" style="endArrow=classic;html=1;rounded=0;exitX=1;exitY=0.75;exitDx=0;exitDy=0;entryX=-0.012;entryY=0.318;entryDx=0;entryDy=0;entryPerimeter=0;" edge="1" parent="1" source="WUF-8V408aM-GwsdY9ow-14" target="WUF-8V408aM-GwsdY9ow-3">
          <mxGeometry width="50" height="50" relative="1" as="geometry">
            <mxPoint x="400" y="370" as="sourcePoint" />
            <mxPoint x="450" y="320" as="targetPoint" />
          </mxGeometry>
        </mxCell>
        <mxCell id="WUF-8V408aM-GwsdY9ow-22" value="" style="endArrow=classic;html=1;rounded=0;exitX=1;exitY=0.176;exitDx=0;exitDy=0;entryX=-0.012;entryY=0.318;entryDx=0;entryDy=0;entryPerimeter=0;exitPerimeter=0;" edge="1" parent="1" source="WUF-8V408aM-GwsdY9ow-3">
          <mxGeometry width="50" height="50" relative="1" as="geometry">
            <mxPoint x="462" y="400" as="sourcePoint" />
            <mxPoint x="610" y="361" as="targetPoint" />
          </mxGeometry>
        </mxCell>
        <mxCell id="WUF-8V408aM-GwsdY9ow-23" value="Piece piece;" style="whiteSpace=wrap;html=1;aspect=fixed;" vertex="1" parent="1">
          <mxGeometry x="740" y="75" width="175" height="175" as="geometry" />
        </mxCell>
        <mxCell id="WUF-8V408aM-GwsdY9ow-24" value="Cell" style="text;html=1;strokeColor=none;fillColor=none;align=center;verticalAlign=middle;whiteSpace=wrap;rounded=0;" vertex="1" parent="1">
          <mxGeometry x="740" y="45" width="60" height="30" as="geometry" />
        </mxCell>
        <mxCell id="WUF-8V408aM-GwsdY9ow-25" value="" style="endArrow=classic;html=1;rounded=0;exitX=0.291;exitY=1;exitDx=0;exitDy=0;exitPerimeter=0;" edge="1" parent="1" source="WUF-8V408aM-GwsdY9ow-23">
          <mxGeometry width="50" height="50" relative="1" as="geometry">
            <mxPoint x="540" y="310" as="sourcePoint" />
            <mxPoint x="530" y="330" as="targetPoint" />
          </mxGeometry>
        </mxCell>
      </root>
    </mxGraphModel>
  </diagram>
</mxfile>
